<?xml version="1.0" standalone="no"?>
<!DOCTYPE svg PUBLIC "-//W3C//DTD SVG 20010904//EN"
 "http://www.w3.org/TR/2001/REC-SVG-20010904/DTD/svg10.dtd">
<svg version="1.0" xmlns="http://www.w3.org/2000/svg"
 width="327.000000pt" height="154.000000pt" viewBox="0 0 327.000000 154.000000"
 preserveAspectRatio="xMidYMid meet">

<g transform="translate(0.000000,154.000000) scale(0.100000,-0.100000)"
fill="#000000" stroke="none">
<path d="M380 1510 c0 -29 -9 -38 -24 -22 -4 4 -26 7 -49 8 -23 1 -61 7 -84
14 -74 22 -159 -11 -147 -57 4 -16 14 -18 73 -15 88 4 156 -12 146 -36 -4 -9
-12 -36 -18 -58 l-10 -42 -69 0 c-74 0 -138 -22 -138 -48 0 -9 -9 -18 -21 -21
-16 -4 -18 -8 -7 -14 10 -7 7 -11 -9 -15 -22 -6 -23 -11 -23 -105 l0 -98 87
-3 c74 -3 88 -6 91 -20 2 -11 -3 -18 -11 -18 -19 0 -79 -68 -72 -80 8 -12 37
0 53 22 14 19 72 24 121 11 20 -5 22 -11 18 -38 l-5 -32 66 -6 c78 -6 303 7
380 22 29 6 62 17 72 24 18 12 15 15 -30 29 -41 13 -50 14 -54 2 -12 -31 -86
-8 -86 27 0 17 5 20 34 18 19 -2 40 2 47 8 8 6 94 16 192 23 l178 13 17 29
c16 28 36 39 30 16 -24 -90 -58 -158 -58 -117 0 5 -4 7 -10 4 -5 -3 -10 -31
-10 -62 0 -44 -5 -61 -24 -84 -44 -52 -47 -179 -6 -260 21 -40 34 -52 24 -21
-5 13 -4 14 4 3 6 -8 8 -20 5 -26 -6 -18 74 -84 144 -117 35 -17 98 -36 140
-44 l78 -13 -80 2 c-66 2 -91 8 -145 33 -73 35 -147 104 -182 170 -12 24 -28
44 -34 44 -6 0 -32 -16 -58 -35 -67 -52 -98 -121 -111 -250 -5 -55 -3 -63 17
-82 79 -74 323 -131 649 -152 90 -6 245 -16 344 -23 260 -17 585 -20 664 -7
36 7 96 25 134 42 54 24 67 34 67 52 0 13 8 41 18 63 17 38 19 39 42 26 14 -7
37 -13 53 -14 25 0 27 -3 27 -40 0 -25 -5 -40 -12 -41 -28 -3 51 -17 100 -18
60 -1 132 18 132 36 0 6 6 14 13 17 10 5 10 7 0 12 -7 3 -13 12 -13 20 0 8 -7
14 -15 14 -8 0 -12 6 -10 13 4 11 -58 47 -82 47 -6 0 -16 6 -22 14 -7 8 -38
22 -69 32 -31 9 -64 25 -74 35 -9 11 -36 22 -62 25 -40 6 -47 11 -56 38 -5 17
-28 52 -50 78 l-40 47 -27 -25 c-17 -15 -38 -24 -59 -24 -37 0 -45 18 -19 40
13 11 22 60 11 60 -3 0 -20 -8 -38 -19 -18 -10 -64 -26 -103 -35 -113 -26
-298 -46 -282 -30 3 3 -6 16 -19 28 l-26 21 42 23 c23 12 50 22 60 22 10 0 26
7 34 16 9 8 41 28 72 43 l55 29 -48 6 c-105 14 -123 18 -123 27 0 22 63 19
223 -9 94 -17 210 -37 256 -44 63 -9 92 -18 114 -37 22 -19 42 -25 84 -26 30
-2 60 -8 66 -14 9 -9 7 -11 -8 -6 -13 5 -8 -3 14 -23 19 -16 29 -31 23 -33 -6
-2 -14 -18 -18 -35 -5 -24 -2 -33 12 -38 11 -4 20 -2 22 3 2 6 8 9 12 6 5 -3
25 2 44 12 l35 16 118 -58 c170 -83 183 -88 183 -72 0 7 -15 21 -32 30 l-33
17 33 -6 c17 -3 32 -4 32 -1 0 2 -49 26 -110 52 -65 29 -110 55 -112 64 -2 9
10 25 26 36 43 29 55 54 34 66 -25 14 -21 30 13 58 28 22 35 23 90 14 l59 -10
0 59 c0 33 -4 57 -8 54 -5 -3 -24 -1 -43 4 -19 5 -87 19 -151 30 l-118 20
-109 87 c-305 246 -571 405 -791 473 -93 28 -224 27 -310 -4 -57 -20 -177 -86
-156 -86 4 0 -5 -11 -21 -24 -28 -23 -103 -159 -103 -186 0 -7 -8 -22 -17 -33
-10 -10 -25 -42 -33 -70 l-16 -52 -63 -5 -63 -5 6 29 c15 74 79 176 110 176 6
0 5 -4 -3 -9 -11 -7 -9 -10 8 -16 22 -7 51 9 51 27 0 7 -4 7 -12 0 -9 -7 -17
-6 -25 3 -17 19 9 45 45 45 21 0 33 10 52 41 62 101 197 190 320 210 98 16
244 -12 348 -67 44 -23 78 -18 91 14 6 15 25 42 41 61 22 25 30 44 30 72 l0
39 -536 0 -536 0 6 -27 c4 -16 16 -40 26 -55 24 -33 24 -37 3 -60 -9 -10 -16
-31 -15 -48 0 -17 -5 -30 -11 -30 -8 0 -7 -3 2 -9 12 -8 11 -16 -5 -54 -15
-37 -22 -44 -35 -36 -9 5 -24 29 -32 54 -16 45 -79 121 -94 112 -4 -3 -55 1
-113 9 -58 8 -153 16 -212 18 -112 5 -148 15 -148 44 1 39 16 47 64 34 25 -6
71 -15 103 -18 32 -4 65 -12 73 -19 22 -19 45 -23 158 -30 89 -6 101 -5 96 8
-8 22 -29 28 -117 37 -85 8 -96 13 -81 37 8 13 30 18 91 21 72 3 86 1 129 -22
73 -39 99 -33 74 15 -10 18 -26 19 -425 19 l-415 0 0 -30z m1550 -191 c14 -1
-14 -5 -62 -10 -59 -5 -105 -16 -143 -33 -63 -29 -71 -27 -20 4 38 24 149 51
180 45 11 -3 31 -5 45 -6z m105 -24 c39 -17 11 -18 -35 0 -23 9 -28 14 -15 14
11 0 34 -6 50 -14z m180 -78 c188 -101 345 -202 419 -269 68 -61 103 -88 116
-88 25 0 2 -25 -28 -31 -56 -11 -79 -48 -50 -77 17 -17 -2 -16 -52 4 -37 15
-39 18 -23 29 24 18 18 21 -47 28 -52 6 -54 5 -30 -9 33 -20 19 -16 -128 42
-67 26 -120 49 -118 51 2 2 15 -1 29 -6 14 -6 77 -10 139 -9 l113 1 -50 16
c-27 8 -56 24 -64 34 -11 16 -25 18 -95 16 -44 -1 -96 -4 -115 -7 l-34 -5 34
-18 c48 -26 29 -23 -55 7 -63 22 -75 30 -90 61 -25 53 -66 102 -97 119 -15 8
-56 14 -91 15 -53 0 -59 2 -38 11 14 5 33 14 43 20 10 5 46 18 81 28 34 11 71
29 83 40 12 11 27 20 33 20 5 0 10 5 10 10 0 18 23 10 105 -33z m-1937 -1 c-2
-11 -16 -27 -31 -34 l-29 -14 7 -74 c4 -41 5 -74 1 -74 -13 0 -52 26 -73 50
-27 29 -30 75 -9 125 12 28 21 35 58 42 57 12 80 6 76 -21z m992 -16 c-8 -5
-19 -10 -25 -10 -5 0 -3 5 5 10 8 5 20 10 25 10 6 0 3 -5 -5 -10z m-895 -63
c-14 -10 -25 -23 -25 -29 0 -16 -49 -78 -61 -78 -17 0 -26 43 -16 78 17 54 89
94 115 63 11 -13 9 -19 -13 -34z m981 27 c18 -14 18 -15 -6 -7 -14 4 -44 7
-67 7 -24 -1 -40 2 -37 7 9 15 89 10 110 -7z m258 -25 c-7 -11 -44 -12 -44 -1
0 15 11 20 30 15 11 -3 17 -9 14 -14z m-1104 -89 c24 -33 23 -63 -1 -68 -18
-3 -64 72 -54 89 11 17 34 9 55 -21z m1493 23 c-7 -2 -21 -2 -30 0 -10 3 -4 5
12 5 17 0 24 -2 18 -5z m-727 -84 c-9 -21 -16 -47 -16 -56 0 -9 -18 -33 -40
-53 -38 -35 -40 -40 -40 -94 0 -130 101 -221 245 -220 l69 0 -47 -12 c-26 -7
-56 -10 -67 -7 -11 3 -20 1 -20 -5 0 -6 -9 -8 -21 -5 -14 4 -17 8 -9 13 9 5 5
10 -11 15 -13 4 -40 20 -59 35 -30 24 -38 26 -53 15 -10 -7 -15 -19 -11 -28 6
-18 -31 -56 -80 -83 -29 -16 -30 -16 -53 12 -23 30 -31 64 -13 64 5 0 17 25
25 55 17 57 35 75 74 75 5 0 8 31 7 69 -1 38 2 67 6 65 4 -3 11 4 17 14 5 10
21 24 35 32 19 10 26 21 26 44 0 36 40 127 47 108 3 -7 -2 -31 -11 -53z m214
13 c0 -22 -33 -102 -42 -102 -6 0 -7 8 -3 18 4 9 8 22 9 29 1 7 5 16 9 19 4 4
7 16 7 26 0 10 5 18 10 18 6 0 10 -4 10 -8z m235 -52 c-9 -28 -19 -49 -22 -46
-3 2 3 28 12 56 9 28 19 49 22 46 3 -2 -3 -28 -12 -56z m-1418 28 c21 -16 3
-38 -32 -38 -40 0 -63 23 -45 45 13 15 53 12 77 -7z m1218 -62 c-6 -36 -11
-46 -24 -44 -22 5 -25 30 -6 74 21 51 39 33 30 -30z m22 -8 c-3 -8 -6 -5 -6 6
-1 11 2 17 5 13 3 -3 4 -12 1 -19z m-178 -42 c7 -8 8 -17 3 -20 -5 -3 -7 -18
-4 -34 2 -16 -1 -32 -6 -36 -6 -4 -11 15 -14 49 -3 57 1 65 21 41z m-38 -61
c7 -36 17 -65 21 -65 5 0 3 -6 -4 -14 -15 -16 -28 -14 -78 8 -19 8 -27 15 -17
16 18 0 21 18 11 57 -4 13 -11 20 -18 17 -6 -3 2 6 17 20 43 40 53 34 68 -39z
m-181 14 c0 -5 -4 -9 -8 -9 -5 0 -9 7 -9 15 0 8 4 12 9 9 4 -3 8 -9 8 -15z
m1765 -30 c37 -32 44 -49 22 -49 -16 0 -67 52 -67 68 0 18 6 15 45 -19z
m-1887 -70 c-6 -17 -8 -55 -4 -87 5 -47 4 -53 -6 -37 -15 26 -15 104 1 133 17
32 22 27 9 -9z m1800 11 c-11 -17 -10 -22 2 -30 12 -8 11 -10 -6 -10 -29 0
-40 31 -18 47 26 19 36 16 22 -7z m-1289 -19 c-3 -6 -10 -7 -18 -2 -7 5 -10
14 -6 21 9 14 29 -2 24 -19z m1507 2 c35 -47 1 -82 -61 -64 l-30 9 28 1 c23 1
27 5 27 29 0 44 14 53 36 25z m-1465 -153 c12 -7 19 -21 19 -41 0 -17 -4 -28
-10 -24 -5 3 -7 0 -4 -9 8 -21 -24 -64 -68 -92 -21 -13 -39 -24 -40 -24 -2 0
-4 21 -5 48 -3 71 -12 112 -26 113 -22 1 38 20 66 21 15 1 30 5 33 10 7 10 11
10 35 -2z m-211 -54 c0 -2 -13 -6 -29 -8 -17 -2 -28 -1 -25 3 2 4 -1 9 -8 12
-7 2 -2 2 10 0 16 -2 21 0 17 8 -6 8 -2 8 14 0 11 -7 21 -13 21 -15z m-259
-142 c69 -23 79 -39 39 -61 -17 -10 -48 -30 -67 -45 -20 -16 -44 -28 -54 -28
-79 0 -159 124 -96 150 28 12 115 4 178 -16z m209 -5 c25 -6 65 -8 90 -5 38 5
41 4 20 -5 -32 -14 -125 -6 -170 15 -23 11 -26 14 -10 10 14 -3 45 -10 70 -15z
m127 -35 c-3 -3 -12 -4 -19 -1 -8 3 -5 6 6 6 11 1 17 -2 13 -5z"/>
<path d="M0 1480 c0 -23 22 -27 39 -7 13 16 5 27 -21 27 -11 0 -18 -7 -18 -20z"/>
<path d="M3263 1165 c0 -22 2 -30 4 -17 2 12 2 30 0 40 -3 9 -5 -1 -4 -23z"/>
<path d="M2840 326 c25 -14 51 -25 58 -26 7 0 33 -9 58 -21 25 -11 51 -18 57
-15 7 3 6 5 -3 6 -8 0 -24 7 -35 16 -17 13 -18 16 -5 24 12 8 10 10 -10 9 -22
0 -88 12 -145 26 -11 3 0 -6 25 -19z"/>
<path d="M3263 205 c0 -27 2 -38 4 -22 2 15 2 37 0 50 -2 12 -4 0 -4 -28z"/>
</g>
</svg>
