<?xml version="1.0" encoding="UTF-8" standalone="no"?>
<!DOCTYPE svg PUBLIC "-//W3C//DTD SVG 1.1//EN" "http://www.w3.org/Graphics/SVG/1.1/DTD/svg11.dtd">
<svg xmlns="http://www.w3.org/2000/svg" version="1.1" viewBox="0.00 0.00 884.00 302.00">
<path fill="#cdac7d" d="
  M 102.54 98.58
  Q 100.86 99.46 99.58 99.12
  Q 99.08 98.98 98.89 98.50
  Q 98.22 96.80 98.68 94.79
  L 114.53 63.85
  A 0.21 0.21 0.0 0 0 114.34 63.54
  Q 84.75 63.52 55.08 63.53
  Q 49.49 63.53 47.16 64.85
  C 43.27 67.05 42.41 70.61 42.41 75.19
  Q 42.43 128.91 42.44 183.13
  Q 42.44 184.00 41.57 184.01
  L 39.04 184.03
  Q 38.25 184.03 38.25 183.24
  Q 38.26 128.43 38.48 73.25
  C 38.51 66.33 43.34 59.56 50.75 59.55
  Q 107.93 59.45 165.75 59.58
  Q 166.72 59.58 166.72 60.55
  L 166.73 62.58
  Q 166.73 63.52 165.80 63.52
  L 121.01 63.53
  A 1.27 1.26 13.3 0 0 119.88 64.22
  L 102.54 98.58
  Z"
/>
<path fill="#cdac7d" d="
  M 365.51 158.27
  A 0.19 0.19 0.0 0 0 365.68 158.00
  L 330.06 78.85
  Q 329.29 77.14 328.53 78.86
  L 279.90 188.66
  Q 279.85 188.77 279.74 188.77
  L 275.70 188.76
  A 0.18 0.18 0.0 0 1 275.54 188.50
  L 326.68 72.95
  Q 326.90 72.47 326.60 72.04
  Q 322.71 66.42 317.36 62.19
  Q 315.97 61.09 317.74 61.10
  L 338.25 61.12
  Q 338.66 61.12 338.83 61.50
  L 383.82 161.39
  A 0.44 0.43 -11.9 0 1 383.42 162.00
  L 336.01 161.99
  A 0.47 0.46 1.2 0 1 335.54 161.51
  L 335.62 158.87
  A 0.63 0.63 0.0 0 1 336.25 158.25
  L 365.51 158.27
  Z"
/>
<path fill="#ba9667" d="
  M 500.05 103.92
  Q 503.83 78.78 525.74 68.30
  Q 540.79 61.10 559.21 64.44
  Q 582.40 68.65 592.77 87.58
  C 599.22 99.35 600.69 115.15 597.82 128.25
  Q 592.24 153.77 569.01 162.73
  Q 558.81 166.67 547.17 166.17
  C 522.46 165.10 503.62 150.25 499.85 125.17
  C 498.98 119.35 498.38 111.96 499.64 105.90
  Q 500.05 103.95 500.05 103.92
  Z
  M 555.38 66.86
  C 551.70 66.20 549.37 65.93 545.64 66.38
  Q 530.50 68.20 521.82 80.80
  C 513.84 92.36 512.01 106.00 512.78 119.95
  C 513.47 132.33 517.07 144.89 525.93 153.81
  C 539.17 167.15 560.31 166.26 573.03 152.79
  C 584.25 140.90 586.61 123.34 585.37 107.75
  C 583.95 89.89 575.09 70.38 555.38 66.86
  Z"
/>
<path fill="#eacb9e" d="
  M 443.90 122.64
  Q 444.66 122.94 445.25 121.77
  Q 445.54 121.19 446.05 121.59
  Q 446.70 122.10 446.86 123.87
  L 435.48 145.29
  A 2.54 2.54 0.0 0 1 430.99 145.28
  L 395.85 79.13
  Q 395.43 78.33 395.43 79.23
  L 395.42 163.76
  A 0.67 0.67 0.0 0 1 394.74 164.43
  L 393.02 164.40
  Q 392.28 164.39 392.28 163.65
  Q 392.26 119.38 392.27 74.82
  Q 392.27 72.22 391.14 70.49
  Q 388.95 67.14 385.47 65.40
  Q 383.15 64.24 385.74 64.26
  L 400.62 64.33
  A 0.64 0.63 75.9 0 1 401.18 64.67
  L 437.72 133.31
  Q 437.96 133.77 438.21 133.31
  L 443.90 122.64
  Z"
/>
<path fill="#cdac7d" d="
  M 446.86 123.87
  Q 446.70 122.10 446.05 121.59
  Q 445.54 121.19 445.25 121.77
  Q 444.66 122.94 443.90 122.64
  L 474.67 64.79
  A 0.98 0.98 0.0 0 1 475.53 64.28
  L 486.24 64.27
  Q 486.83 64.27 486.53 64.78
  C 482.72 71.13 482.42 76.40 482.42 82.92
  Q 482.44 123.46 482.43 163.89
  A 0.55 0.55 0.0 0 1 481.88 164.44
  L 471.63 164.42
  Q 471.09 164.42 471.09 163.88
  L 471.09 78.99
  Q 471.09 78.39 470.80 78.92
  L 446.86 123.87
  Z"
/>
<path fill="#cdac7d" d="
  M 706.92 70.56
  Q 705.95 69.14 705.02 67.65
  Q 704.73 67.18 705.27 67.08
  L 719.47 64.51
  Q 720.00 64.42 720.00 64.96
  L 719.99 163.84
  Q 719.99 164.42 719.41 164.42
  L 709.51 164.42
  Q 709.02 164.42 709.02 163.93
  Q 708.99 123.58 709.00 83.23
  C 709.00 79.37 708.60 73.00 706.92 70.56
  Z"
/>
<path fill="#eacb9e" d="
  M 821.11 79.30
  Q 821.11 78.45 820.71 79.20
  L 785.58 145.26
  A 2.57 2.57 0.0 0 1 781.04 145.25
  L 745.71 78.72
  Q 745.42 78.18 745.42 78.79
  L 745.41 163.76
  A 0.66 0.66 0.0 0 1 744.74 164.42
  L 743.02 164.40
  A 0.77 0.76 -89.6 0 1 742.27 163.63
  Q 742.29 119.45 742.26 74.96
  Q 742.26 72.15 741.09 70.34
  Q 739.06 67.19 735.70 65.50
  Q 733.17 64.24 736.00 64.25
  L 750.45 64.31
  Q 751.07 64.32 751.36 64.86
  L 787.97 133.65
  Q 788.04 133.78 788.11 133.65
  L 824.77 64.74
  A 0.82 0.81 14.0 0 1 825.49 64.31
  L 835.99 64.27
  Q 836.92 64.27 836.43 65.06
  C 833.39 69.94 832.75 73.94 832.75 80.18
  Q 832.74 122.00 832.69 163.83
  A 0.59 0.58 -90.0 0 1 832.11 164.42
  L 821.43 164.40
  A 0.29 0.29 0.0 0 1 821.14 164.11
  L 821.11 79.30
  Z"
/>
<path fill="#ba9667" d="
  M 666.57 119.01
  C 674.45 123.67 678.38 131.67 680.07 140.34
  Q 680.67 143.42 681.44 146.46
  C 683.50 154.55 687.18 158.59 692.36 164.15
  Q 692.73 164.54 692.21 164.68
  Q 686.51 166.11 681.77 164.74
  C 663.46 159.43 674.71 131.60 656.72 121.66
  Q 653.73 120.01 648.93 119.71
  C 642.07 119.28 635.30 119.60 628.45 119.41
  Q 627.88 119.40 627.88 119.97
  L 627.88 164.50
  A 0.39 0.39 0.0 0 1 627.49 164.89
  L 616.88 164.88
  A 0.59 0.58 0.0 0 1 616.29 164.30
  Q 616.28 121.01 616.25 77.75
  Q 616.24 71.45 612.48 65.48
  Q 612.19 65.02 612.73 65.02
  Q 631.40 64.97 650.06 65.01
  C 662.51 65.04 669.46 64.57 678.19 70.07
  C 688.18 76.38 690.04 89.08 687.46 100.26
  C 685.00 110.95 677.05 116.02 666.63 118.57
  Q 666.06 118.71 666.57 119.01
  Z
  M 627.82 68.41
  L 627.90 115.59
  A 0.59 0.59 0.0 0 0 628.49 116.18
  L 657.17 116.13
  A 21.75 19.91 89.9 0 0 677.04 94.35
  L 677.04 89.49
  A 21.75 19.91 89.9 0 0 657.09 67.77
  L 628.41 67.82
  A 0.59 0.59 0.0 0 0 627.82 68.41
  Z"
/>
<path fill="#cdac7d" d="
  M 177.69 121.13
  Q 174.68 117.20 171.51 115.54
  Q 171.06 115.31 170.74 114.93
  C 169.83 113.85 167.94 113.45 166.65 112.39
  C 164.31 110.47 161.52 109.40 158.96 107.85
  Q 156.04 106.09 153.77 105.13
  Q 150.66 103.82 147.36 102.48
  L 144.40 96.78
  Q 144.15 96.29 143.90 96.78
  L 132.46 119.77
  Q 131.40 119.95 130.30 119.57
  Q 129.84 119.41 129.67 118.96
  L 128.64 116.28
  L 140.93 91.69
  A 1.52 1.52 0.0 0 0 140.76 90.04
  C 137.09 85.40 133.30 82.77 128.55 78.63
  A 0.33 0.32 65.7 0 1 128.76 78.06
  L 155.48 78.09
  A 0.90 0.88 76.2 0 1 156.27 78.58
  L 177.69 121.13
  Z"
/>
<path fill="#ba9667" d="
  M 98.68 94.79
  Q 98.22 96.80 98.89 98.50
  Q 99.08 98.98 99.58 99.12
  Q 100.86 99.46 102.54 98.58
  L 64.91 173.24
  A 0.35 0.35 0.0 0 0 65.22 173.74
  L 99.53 173.73
  A 1.03 1.02 13.0 0 0 100.45 173.16
  L 128.64 116.28
  L 129.67 118.96
  Q 129.84 119.41 130.30 119.57
  Q 131.40 119.95 132.46 119.77
  L 106.00 173.19
  Q 105.73 173.75 106.35 173.75
  L 182.75 173.72
  Q 183.21 173.72 183.00 173.31
  L 174.90 157.06
  Q 179.91 162.76 186.93 166.49
  C 191.21 168.77 193.92 170.30 197.46 172.11
  Q 197.63 172.20 200.84 174.19
  Q 203.19 175.64 204.88 174.94
  L 215.45 195.85
  Q 217.21 199.32 216.61 195.50
  Q 216.44 194.45 216.44 192.63
  Q 216.38 152.76 216.47 112.99
  Q 216.47 111.99 217.47 111.96
  L 219.52 111.90
  A 0.96 0.96 0.0 0 1 220.52 112.86
  Q 220.62 156.57 220.54 199.40
  C 220.53 207.20 222.86 219.76 217.54 226.31
  C 213.85 230.86 209.56 231.45 203.43 231.45
  Q 174.96 231.43 146.43 231.42
  Q 148.58 229.77 147.18 227.27
  L 207.82 227.26
  Q 210.21 227.26 209.13 225.13
  L 185.77 179.01
  A 0.94 0.94 0.0 0 0 184.93 178.49
  L 104.51 178.49
  A 1.69 1.68 12.9 0 0 102.99 179.44
  L 92.79 200.59
  Q 92.56 195.93 89.01 196.38
  L 97.50 178.94
  Q 97.72 178.48 97.21 178.48
  L 56.72 178.50
  Q 55.80 178.50 56.22 177.68
  L 98.68 94.79
  Z"
/>
<path fill="#eacb9e" d="
  M 177.69 121.13
  L 204.88 174.94
  Q 203.19 175.64 200.84 174.19
  Q 197.63 172.20 197.46 172.11
  C 193.92 170.30 191.21 168.77 186.93 166.49
  Q 179.91 162.76 174.90 157.06
  L 147.36 102.48
  Q 150.66 103.82 153.77 105.13
  Q 156.04 106.09 158.96 107.85
  C 161.52 109.40 164.31 110.47 166.65 112.39
  C 167.94 113.45 169.83 113.85 170.74 114.93
  Q 171.06 115.31 171.51 115.54
  Q 174.68 117.20 177.69 121.13
  Z"
/>
<path fill="#cdac7d" d="
  M 535.80 186.05
  Q 535.61 186.43 535.75 186.68
  Q 536.15 187.40 535.75 187.38
  Q 535.59 187.37 535.42 187.38
  Q 534.97 187.41 535.10 187.84
  Q 535.50 189.14 534.55 189.94
  Q 534.23 190.20 534.62 190.33
  Q 535.03 190.47 535.30 190.73
  C 451.42 190.90 367.44 189.89 283.54 188.72
  Q 283.70 188.52 283.54 188.31
  Q 311.77 187.62 313.60 187.61
  A 196.02 8.98 -0.5 0 0 341.32 187.36
  Q 397.94 186.66 454.62 186.32
  C 481.68 186.16 508.73 186.29 535.80 186.05
  Z"
/>
<path fill="#eacb9e" d="
  M 535.80 186.05
  C 551.08 185.99 566.35 186.25 581.60 186.25
  C 664.92 186.25 748.33 186.64 831.65 188.32
  Q 831.82 188.32 831.82 188.48
  L 831.82 188.49
  Q 831.82 188.65 831.66 188.65
  Q 816.09 189.12 800.50 188.93
  C 799.32 188.92 797.85 189.27 796.49 189.25
  Q 791.03 189.19 778.50 189.35
  C 697.44 190.39 616.36 190.80 535.30 190.73
  Q 535.03 190.47 534.62 190.33
  Q 534.23 190.20 534.55 189.94
  Q 535.50 189.14 535.10 187.84
  Q 534.97 187.41 535.42 187.38
  Q 535.59 187.37 535.75 187.38
  Q 536.15 187.40 535.75 186.68
  Q 535.61 186.43 535.80 186.05
  Z"
/>
<path fill="#eacb9e" d="
  M 57.60 187.42
  L 41.61 219.43
  A 0.82 0.82 0.0 0 1 40.51 219.80
  L 37.71 218.41
  A 0.82 0.82 0.0 0 1 37.34 217.30
  L 53.04 186.71
  A 0.82 0.82 0.0 0 1 53.77 186.26
  L 56.86 186.23
  A 0.82 0.82 0.0 0 1 57.60 187.42
  Z"
/>
<path fill="#ba9667" d="
  M 283.54 188.31
  Q 283.70 188.52 283.54 188.72
  Q 282.54 188.86 281.61 188.68
  Q 281.07 188.58 281.59 188.39
  Q 282.39 188.09 283.54 188.31
  Z"
/>
<path fill="#eacb9e" d="
  M 92.79 200.59
  L 78.21 230.83
  Q 77.63 232.04 76.28 232.02
  L 72.56 231.95
  Q 71.27 231.92 71.84 230.77
  L 89.01 196.38
  Q 92.56 195.93 92.79 200.59
  Z"
/>
<path fill="#fcfdfd" d="
  M 764.54 210.81
  Q 763.41 212.68 761.32 213.10
  A 0.42 0.42 0.0 0 1 760.86 212.52
  Q 762.03 209.89 764.92 210.25
  A 0.17 0.17 0.0 0 1 764.97 210.58
  Q 764.81 210.66 764.63 210.73
  Q 764.57 210.76 764.54 210.81
  Z"
/>
<path fill="#fcfdfd" d="
  M 481.25 220.75
  L 483.41 220.76
  Q 483.71 220.76 483.68 221.06
  L 483.64 221.36
  Q 483.62 221.48 483.51 221.48
  L 481.25 221.50
  Q 480.76 221.50 480.76 221.99
  C 480.68 227.86 478.49 232.21 472.01 231.92
  C 465.38 231.62 462.84 222.63 469.50 221.49
  A 0.44 0.44 0.0 0 0 469.61 220.65
  C 463.06 217.66 469.55 210.74 475.53 213.07
  Q 477.80 213.95 475.78 213.80
  Q 474.95 213.73 473.17 213.33
  Q 469.91 212.58 469.14 215.83
  L 469.03 216.31
  A 3.63 3.62 -75.0 0 0 471.52 220.63
  Q 474.76 221.60 478.00 220.62
  Q 478.64 220.42 478.55 219.75
  L 478.31 217.93
  Q 478.27 217.64 478.57 217.60
  L 480.42 217.36
  Q 480.77 217.31 480.77 217.66
  L 480.74 220.24
  Q 480.74 220.75 481.25 220.75
  Z
  M 475.29 221.53
  C 472.46 221.64 468.99 220.94 468.27 224.73
  C 466.74 232.72 478.34 233.59 478.75 226.23
  Q 478.86 224.22 478.70 222.03
  Q 478.67 221.52 478.16 221.51
  Q 476.68 221.48 475.29 221.53
  Z"
/>
<path fill="#fcfdfd" d="
  M 354.58 222.92
  A 8.84 8.84 0.0 0 1 345.74 231.76
  A 8.84 8.84 0.0 0 1 336.90 222.92
  A 8.84 8.84 0.0 0 1 345.74 214.08
  A 8.84 8.84 0.0 0 1 354.58 222.92
  Z
  M 353.09 222.93
  A 7.35 7.35 0.0 0 0 345.74 215.58
  A 7.35 7.35 0.0 0 0 338.39 222.93
  A 7.35 7.35 0.0 0 0 345.74 230.28
  A 7.35 7.35 0.0 0 0 353.09 222.93
  Z"
/>
<path fill="#fcfdfd" d="
  M 371.03 215.75
  C 363.97 213.71 358.77 222.63 363.63 227.85
  C 366.67 231.12 371.32 231.14 374.51 227.91
  A 0.81 0.81 0.0 0 1 375.66 227.90
  L 375.87 228.11
  Q 376.15 228.39 375.87 228.68
  Q 371.72 233.11 366.37 231.37
  C 358.73 228.89 358.26 217.96 365.50 214.75
  Q 370.79 212.40 375.35 216.60
  Q 375.67 216.90 375.46 217.28
  L 375.32 217.57
  Q 375.01 218.14 374.46 217.81
  C 373.30 217.10 372.26 216.11 371.03 215.75
  Z"
/>
<path fill="#fcfdfd" d="
  M 403.53 224.32
  C 404.39 230.25 412.14 232.31 416.24 227.82
  Q 416.55 227.48 416.88 227.79
  L 417.33 228.21
  A 0.44 0.44 0.0 0 1 417.34 228.84
  C 412.17 233.96 403.00 231.87 402.03 224.45
  C 400.90 215.77 410.80 210.51 417.09 216.73
  A 0.48 0.47 -43.8 0 1 417.07 217.42
  L 416.83 217.64
  A 0.85 0.85 0.0 0 1 415.68 217.62
  C 410.23 212.46 402.52 217.35 403.53 224.32
  Z"
/>
<path fill="#fcfdfd" d="
  M 523.03 228.03
  C 524.92 231.52 530.92 231.14 531.86 227.03
  Q 531.96 226.59 531.76 226.18
  C 529.72 221.80 523.04 225.46 521.18 219.69
  C 519.17 213.47 532.90 212.02 533.40 217.85
  Q 533.45 218.47 532.99 218.72
  Q 532.59 218.94 532.33 218.56
  Q 529.04 213.62 523.79 216.59
  A 2.41 2.40 -24.7 0 0 522.71 219.50
  C 523.73 222.35 527.54 222.10 529.96 222.85
  C 538.87 225.62 529.21 236.85 521.91 229.36
  Q 521.07 228.49 521.10 228.32
  Q 521.65 225.48 523.03 228.03
  Z"
/>
<path fill="#fcfdfd" d="
  M 542.07 219.68
  C 543.06 222.65 547.78 222.01 549.67 222.84
  C 557.99 226.50 548.17 236.37 541.15 229.36
  Q 540.30 228.52 540.35 228.32
  Q 541.10 225.17 542.36 228.16
  C 543.67 231.28 549.73 231.16 551.03 227.51
  C 552.50 223.36 544.51 223.97 542.24 222.24
  C 535.90 217.42 546.33 210.30 552.36 216.68
  Q 552.99 217.36 552.58 218.19
  L 552.28 218.77
  A 0.36 0.36 0.0 0 1 551.64 218.77
  Q 549.39 214.33 544.39 215.94
  C 542.73 216.48 541.43 217.79 542.07 219.68
  Z"
/>
<path fill="#fcfdfd" d="
  M 588.64 218.37
  C 587.51 213.58 577.31 215.44 579.63 219.96
  C 581.00 222.64 585.44 222.05 587.13 222.86
  C 590.78 224.59 591.34 228.54 587.85 230.76
  C 584.97 232.59 578.92 232.04 577.83 227.88
  Q 577.69 227.32 578.24 227.18
  L 578.61 227.08
  A 0.80 0.79 -18.3 0 1 579.54 227.54
  C 581.09 231.25 587.44 231.60 588.58 227.11
  A 1.37 1.36 42.4 0 0 588.54 226.32
  C 587.44 223.31 583.23 223.68 581.36 223.16
  C 578.81 222.44 576.93 219.54 578.29 216.99
  C 580.46 212.94 589.73 213.00 590.10 218.13
  A 0.53 0.53 0.0 0 1 589.66 218.70
  L 589.24 218.77
  A 0.53 0.52 -11.1 0 1 588.64 218.37
  Z"
/>
<path fill="#fcfdfd" d="
  M 598.67 219.00
  C 598.96 221.95 602.25 222.00 605.01 222.44
  C 610.40 223.29 611.14 229.98 605.55 231.46
  Q 601.52 232.52 597.23 229.21
  A 1.22 1.21 -32.2 0 1 597.72 227.06
  Q 597.89 227.03 598.03 227.02
  Q 598.58 226.99 598.80 227.49
  C 600.53 231.44 606.92 231.49 607.90 226.89
  A 1.18 1.18 0.0 0 0 607.79 226.09
  C 605.62 221.84 598.39 225.42 597.25 219.37
  Q 596.67 216.26 600.48 214.70
  Q 604.91 212.89 608.44 216.04
  Q 609.77 217.22 609.18 218.45
  Q 608.52 219.85 608.07 218.37
  C 606.86 214.39 598.24 214.73 598.67 219.00
  Z"
/>
<path fill="#fcfdfd" d="
  M 633.24 222.93
  A 8.84 8.84 0.0 0 1 624.40 231.77
  A 8.84 8.84 0.0 0 1 615.56 222.93
  A 8.84 8.84 0.0 0 1 624.40 214.09
  A 8.84 8.84 0.0 0 1 633.24 222.93
  Z
  M 631.75 222.92
  A 7.36 7.36 0.0 0 0 624.39 215.56
  A 7.36 7.36 0.0 0 0 617.03 222.92
  A 7.36 7.36 0.0 0 0 624.39 230.28
  A 7.36 7.36 0.0 0 0 631.75 222.92
  Z"
/>
<path fill="#fcfdfd" d="
  M 803.22 217.65
  C 796.15 225.25 806.82 234.93 813.45 227.98
  Q 813.99 227.42 814.62 227.87
  L 814.84 228.03
  A 0.51 0.51 0.0 0 1 814.90 228.82
  Q 809.60 233.76 803.98 230.62
  C 792.68 224.32 804.33 207.50 814.32 216.45
  A 0.68 0.67 -54.7 0 1 814.46 217.29
  L 814.21 217.74
  A 0.42 0.41 33.3 0 1 813.59 217.86
  Q 807.49 213.07 803.22 217.65
  Z"
/>
<path fill="#fcfdfd" d="
  M 279.55 227.42
  L 277.49 231.69
  A 0.30 0.30 0.0 0 1 277.07 231.82
  L 276.36 231.44
  A 0.30 0.30 0.0 0 1 276.23 231.05
  L 283.95 214.43
  A 0.30 0.30 0.0 0 1 284.50 214.44
  L 291.78 231.02
  A 0.30 0.30 0.0 0 1 291.62 231.42
  L 290.81 231.76
  A 0.30 0.30 0.0 0 1 290.42 231.60
  L 288.58 227.43
  A 0.30 0.30 0.0 0 0 288.30 227.25
  L 279.82 227.25
  A 0.30 0.30 0.0 0 0 279.55 227.42
  Z
  M 280.52 225.28
  A 0.32 0.32 0.0 0 0 280.81 225.73
  L 287.39 225.78
  A 0.32 0.32 0.0 0 0 287.69 225.33
  L 284.45 218.07
  A 0.32 0.32 0.0 0 0 283.86 218.07
  L 280.52 225.28
  Z"
/>
<path fill="#fcfdfd" d="
  M 298.50 214.70
  A 0.46 0.46 0.0 0 1 298.97 214.24
  L 303.70 214.25
  A 8.51 8.29 -89.9 0 1 311.97 222.77
  L 311.97 223.05
  A 8.51 8.29 -89.9 0 1 303.66 231.55
  L 298.93 231.54
  A 0.46 0.46 0.0 0 1 298.48 231.08
  L 298.50 214.70
  Z
  M 299.97 216.01
  L 299.97 229.93
  A 0.31 0.31 0.0 0 0 300.28 230.24
  L 303.26 230.24
  A 7.21 7.07 0.0 0 0 310.47 223.17
  L 310.47 222.77
  A 7.21 7.07 -0.0 0 0 303.26 215.70
  L 300.28 215.70
  A 0.31 0.31 0.0 0 0 299.97 216.01
  Z"
/>
<path fill="#fcfdfd" d="
  M 330.97 214.24
  L 331.90 214.26
  A 0.31 0.31 0.0 0 1 332.18 214.70
  L 324.68 231.49
  A 0.31 0.31 0.0 0 1 324.12 231.49
  L 316.59 214.63
  A 0.31 0.31 0.0 0 1 316.90 214.19
  L 317.86 214.28
  A 0.31 0.31 0.0 0 1 318.11 214.46
  L 324.11 227.86
  A 0.31 0.31 0.0 0 0 324.67 227.86
  L 330.69 214.43
  A 0.31 0.31 0.0 0 1 330.97 214.24
  Z"
/>
<path fill="#fcfdfd" d="
  M 384.49 227.80
  Q 383.92 229.98 382.43 231.63
  A 0.34 0.34 0.0 0 1 382.00 231.69
  L 381.77 231.54
  Q 381.35 231.26 381.56 230.80
  L 389.16 214.49
  A 0.33 0.33 0.0 0 1 389.76 214.50
  L 397.01 231.03
  A 0.34 0.33 78.2 0 1 396.71 231.50
  L 396.35 231.50
  Q 395.61 231.49 395.32 230.82
  L 393.98 227.74
  Q 393.76 227.25 393.23 227.25
  L 385.21 227.25
  A 0.75 0.75 0.0 0 0 384.49 227.80
  Z
  M 392.58 225.75
  A 0.32 0.32 0.0 0 0 392.87 225.30
  L 389.72 218.08
  A 0.32 0.32 0.0 0 0 389.14 218.08
  L 385.73 225.29
  A 0.32 0.32 0.0 0 0 386.02 225.75
  L 392.58 225.75
  Z"
/>
<rect fill="#fcfdfd" x="424.50" y="214.20" width="1.50" height="17.40" rx="0.73"/>
<path fill="#fcfdfd" d="
  M 445.12 227.25
  L 436.64 227.25
  A 0.30 0.30 0.0 0 0 436.37 227.42
  L 434.45 231.35
  A 0.30 0.30 0.0 0 1 434.16 231.52
  L 433.28 231.49
  A 0.30 0.30 0.0 0 1 433.02 231.06
  L 440.75 214.43
  A 0.30 0.30 0.0 0 1 441.30 214.44
  L 448.64 231.16
  A 0.30 0.30 0.0 0 1 448.39 231.58
  L 447.51 231.64
  A 0.30 0.30 0.0 0 1 447.21 231.47
  L 445.39 227.43
  A 0.30 0.30 0.0 0 0 445.12 227.25
  Z
  M 437.33 225.29
  A 0.31 0.31 0.0 0 0 437.61 225.73
  L 444.18 225.76
  A 0.31 0.31 0.0 0 0 444.46 225.33
  L 441.22 218.02
  A 0.31 0.31 0.0 0 0 440.65 218.01
  L 437.33 225.29
  Z"
/>
<path fill="#fcfdfd" d="
  M 511.76 227.25
  L 503.26 227.25
  A 0.31 0.31 0.0 0 0 502.98 227.43
  L 501.15 231.30
  A 0.31 0.31 0.0 0 1 500.88 231.48
  L 499.93 231.53
  A 0.31 0.31 0.0 0 1 499.64 231.08
  L 507.37 214.46
  A 0.31 0.31 0.0 0 1 507.94 214.47
  L 515.24 231.08
  A 0.31 0.31 0.0 0 1 514.96 231.51
  L 514.00 231.49
  A 0.31 0.31 0.0 0 1 513.72 231.31
  L 512.04 227.44
  A 0.31 0.31 0.0 0 0 511.76 227.25
  Z
  M 504.01 225.29
  A 0.32 0.32 0.0 0 0 504.30 225.74
  L 510.78 225.76
  A 0.32 0.32 0.0 0 0 511.08 225.31
  L 507.86 218.01
  A 0.32 0.32 0.0 0 0 507.27 218.01
  L 504.01 225.29
  Z"
/>
<path fill="#fcfdfd" d="
  M 561.81 222.25
  L 568.94 222.25
  A 0.31 0.31 0.0 0 1 569.25 222.56
  L 569.26 223.44
  A 0.31 0.31 0.0 0 1 568.95 223.75
  L 561.81 223.74
  A 0.31 0.31 0.0 0 0 561.50 224.05
  L 561.50 229.69
  A 0.31 0.31 0.0 0 0 561.81 230.00
  L 571.27 230.00
  A 0.31 0.31 0.0 0 1 571.58 230.30
  L 571.61 231.17
  A 0.31 0.31 0.0 0 1 571.30 231.49
  L 560.31 231.50
  A 0.31 0.31 0.0 0 1 560.00 231.19
  L 560.00 214.55
  A 0.31 0.31 0.0 0 1 560.31 214.24
  L 571.24 214.26
  A 0.31 0.31 0.0 0 1 571.54 214.52
  L 571.68 215.39
  A 0.31 0.31 0.0 0 1 571.38 215.75
  L 561.81 215.75
  A 0.31 0.31 0.0 0 0 561.50 216.06
  L 561.50 221.94
  A 0.31 0.31 0.0 0 0 561.81 222.25
  Z"
/>
<path fill="#fcfdfd" d="
  M 641.25 216.28
  L 641.25 231.00
  Q 641.25 231.51 640.75 231.50
  L 640.24 231.48
  Q 639.75 231.47 639.75 230.99
  L 639.75 214.77
  Q 639.75 214.31 640.21 214.29
  Q 643.15 214.16 645.97 214.26
  C 653.39 214.52 653.34 223.75 646.18 224.06
  A 0.27 0.27 0.0 0 0 645.99 224.50
  L 651.46 231.02
  Q 651.86 231.50 651.23 231.50
  L 650.39 231.50
  Q 649.85 231.50 649.51 231.08
  L 643.14 223.34
  Q 642.66 222.76 643.42 222.77
  C 645.15 222.79 647.20 222.90 648.62 221.89
  C 650.18 220.77 650.77 219.04 649.51 217.38
  C 647.94 215.30 644.38 215.62 641.70 215.80
  Q 641.25 215.83 641.25 216.28
  Z"
/>
<rect fill="#fcfdfd" x="659.50" y="214.22" width="1.24" height="17.36" rx="0.60"/>
<path fill="#fcfdfd" d="
  M 679.97 227.25
  L 671.52 227.24
  A 0.31 0.31 0.0 0 0 671.24 227.41
  L 669.33 231.32
  A 0.31 0.31 0.0 0 1 669.06 231.49
  L 668.16 231.50
  A 0.31 0.31 0.0 0 1 667.88 231.06
  L 675.59 214.46
  A 0.31 0.31 0.0 0 1 676.16 214.47
  L 683.44 231.01
  A 0.31 0.31 0.0 0 1 683.20 231.45
  L 682.33 231.57
  A 0.31 0.31 0.0 0 1 682.01 231.39
  L 680.25 227.43
  A 0.31 0.31 0.0 0 0 679.97 227.25
  Z
  M 672.20 225.26
  A 0.33 0.33 0.0 0 0 672.50 225.72
  L 678.98 225.77
  A 0.33 0.33 0.0 0 0 679.29 225.31
  L 676.10 218.03
  A 0.33 0.33 0.0 0 0 675.49 218.03
  L 672.20 225.26
  Z"
/>
<path fill="#fcfdfd" d="
  M 704.42 229.93
  C 712.75 232.75 711.26 218.65 711.29 214.73
  Q 711.29 214.26 711.76 214.26
  L 712.06 214.25
  A 0.38 0.38 0.0 0 1 712.45 214.62
  Q 712.69 222.81 712.40 225.75
  C 711.84 231.62 704.27 234.00 700.71 228.93
  Q 700.30 228.35 700.66 227.74
  L 700.87 227.39
  A 0.36 0.35 37.5 0 1 701.43 227.32
  C 702.40 228.29 703.09 229.49 704.42 229.93
  Z"
/>
<path fill="#fcfdfd" d="
  M 722.22 227.51
  C 724.67 232.43 731.60 230.31 731.93 225.00
  Q 732.09 222.41 732.00 214.89
  Q 731.99 214.35 732.52 214.29
  L 732.81 214.25
  Q 733.24 214.20 733.24 214.63
  C 733.23 218.53 733.99 225.14 732.36 228.32
  C 729.23 234.42 720.39 231.80 720.06 225.01
  Q 719.91 221.76 720.03 215.00
  Q 720.04 214.31 720.72 214.22
  L 721.03 214.18
  A 0.40 0.39 -4.6 0 1 721.48 214.56
  C 721.51 218.01 720.79 224.63 722.22 227.51
  Z"
/>
<path fill="#fcfdfd" d="
  M 742.50 216.26
  L 742.49 231.19
  A 0.42 0.41 0.7 0 1 742.06 231.60
  L 741.79 231.60
  A 0.81 0.81 0.0 0 1 741.00 230.79
  L 741.00 214.76
  Q 741.00 214.27 741.49 214.26
  Q 743.62 214.21 746.98 214.29
  C 754.50 214.48 754.57 223.67 747.38 224.03
  A 0.28 0.28 0.0 0 0 747.18 224.48
  L 752.58 231.02
  Q 753.30 231.89 752.20 231.63
  L 751.11 231.37
  A 0.92 0.87 76.0 0 1 750.64 231.07
  L 744.33 223.40
  Q 743.80 222.75 744.64 222.75
  C 746.33 222.75 748.62 222.97 750.09 221.63
  C 752.44 219.47 751.16 216.63 748.24 215.90
  Q 746.72 215.51 742.90 215.83
  Q 742.50 215.86 742.50 216.26
  Z"
/>
<rect fill="#fcfdfd" x="760.75" y="214.24" width="1.24" height="17.36" rx="0.59"/>
<path fill="#fcfdfd" d="
  M 770.24 214.73
  A 0.46 0.46 0.0 0 1 770.69 214.27
  L 775.62 214.26
  A 8.20 8.11 89.9 0 1 783.75 222.45
  L 783.75 223.33
  A 8.20 8.11 89.9 0 1 775.66 231.54
  L 770.73 231.55
  A 0.46 0.46 0.0 0 1 770.26 231.09
  L 770.24 214.73
  Z
  M 771.77 215.97
  L 771.73 229.93
  A 0.29 0.29 0.0 0 0 772.01 230.22
  L 775.41 230.23
  A 6.96 6.81 -89.8 0 0 782.25 223.30
  L 782.25 222.68
  A 6.96 6.81 -89.8 0 0 775.47 215.69
  L 772.07 215.68
  A 0.29 0.29 0.0 0 0 771.77 215.97
  Z"
/>
<rect fill="#fcfdfd" x="791.01" y="214.22" width="1.24" height="17.30" rx="0.58"/>
<path fill="#fcfdfd" d="
  M 832.65 227.24
  L 824.14 227.25
  A 0.31 0.31 0.0 0 0 823.86 227.43
  L 822.06 231.38
  A 0.31 0.31 0.0 0 1 821.75 231.56
  L 820.82 231.46
  A 0.31 0.31 0.0 0 1 820.57 231.02
  L 828.29 214.44
  A 0.31 0.31 0.0 0 1 828.86 214.45
  L 836.13 231.07
  A 0.31 0.31 0.0 0 1 835.83 231.50
  L 834.92 231.46
  A 0.31 0.31 0.0 0 1 834.65 231.28
  L 832.93 227.42
  A 0.31 0.31 0.0 0 0 832.65 227.24
  Z
  M 824.87 225.26
  A 0.33 0.33 0.0 0 0 825.17 225.72
  L 831.69 225.77
  A 0.33 0.33 0.0 0 0 832.00 225.30
  L 828.78 218.11
  A 0.33 0.33 0.0 0 0 828.18 218.11
  L 824.87 225.26
  Z"
/>
<path fill="#eacb9e" d="
  M 147.18 227.27
  Q 148.58 229.77 146.43 231.42
  L 97.67 231.41
  A 0.68 0.67 89.6 0 1 97.00 230.74
  L 96.99 227.99
  Q 96.98 227.25 97.73 227.25
  L 147.18 227.27
  Z"
/>
</svg>
