<?xml version="1.0" encoding="UTF-8" standalone="no"?>
<!DOCTYPE svg PUBLIC "-//W3C//DTD SVG 1.1//EN" "http://www.w3.org/Graphics/SVG/1.1/DTD/svg11.dtd">
<svg xmlns="http://www.w3.org/2000/svg" version="1.1" viewBox="0.00 0.00 1081.00 1080.00">
<path fill="#e7c79a" d="
  M 488.06 353.02
  Q 488.29 353.95 488.97 354.00
  Q 489.39 354.04 489.62 354.39
  Q 490.00 354.97 490.63 355.35
  A 0.45 0.44 44.4 0 1 490.64 356.10
  Q 489.78 356.68 488.53 356.73
  Q 479.79 356.74 471.03 356.77
  C 466.32 356.79 463.87 357.84 461.60 361.77
  Q 459.11 361.73 459.27 358.44
  C 462.09 354.31 465.25 353.11 470.45 353.05
  Q 479.24 352.93 488.06 353.02
  Z"
/>
<path fill="#cfae7f" d="
  M 488.06 353.02
  L 574.76 353.02
  Q 575.00 353.02 574.99 353.25
  L 574.97 356.51
  Q 574.97 356.74 574.74 356.74
  L 532.99 356.74
  Q 532.27 356.74 531.94 357.38
  L 523.82 373.44
  C 522.73 372.11 521.80 370.39 519.71 371.39
  L 527.01 357.21
  Q 527.25 356.74 526.72 356.74
  L 488.53 356.73
  Q 489.78 356.68 490.64 356.10
  A 0.45 0.44 44.4 0 0 490.63 355.35
  Q 490.00 354.97 489.62 354.39
  Q 489.39 354.04 488.97 354.00
  Q 488.29 353.95 488.06 353.02
  Z"
/>
<path fill="#cfae7f" d="
  M 459.27 358.44
  Q 459.11 361.73 461.60 361.77
  Q 460.50 367.32 460.92 373.69
  L 459.87 382.03
  Q 459.79 382.62 459.23 382.82
  Q 458.62 383.05 458.14 382.71
  Q 457.79 382.46 457.75 382.03
  L 457.09 375.19
  C 456.96 369.37 456.25 363.02 459.27 358.44
  Z"
/>
<path fill="#cfae7f" d="
  M 581.72 402.78
  Q 580.33 402.06 577.38 399.61
  Q 575.08 397.70 567.33 393.94
  Q 567.00 393.78 566.91 393.32
  Q 566.84 392.94 566.50 392.75
  L 555.38 386.68
  Q 555.06 386.51 554.78 386.74
  L 554.49 386.97
  Q 554.21 386.88 554.09 387.08
  Q 553.54 386.67 553.32 386.20
  Q 553.14 385.82 552.71 385.82
  Q 551.90 385.81 551.36 385.40
  Q 550.56 384.79 550.08 385.02
  L 551.43 382.06
  Q 551.67 381.54 551.31 381.09
  Q 546.48 375.20 540.23 370.83
  Q 539.06 370.00 540.49 370.00
  L 564.71 370.01
  Q 565.16 370.01 565.36 370.41
  L 581.72 402.78
  Z"
/>
<path fill="#e7c79a" d="
  M 523.82 373.44
  L 518.35 384.36
  Q 516.53 385.52 515.50 384.00
  Q 514.76 382.91 514.66 381.25
  L 519.71 371.39
  C 521.80 370.39 522.73 372.11 523.82 373.44
  Z"
/>
<path fill="#b38f5f" d="
  M 460.92 373.69
  L 460.92 449.58
  Q 460.09 447.91 458.98 446.86
  Q 458.55 446.46 458.15 446.89
  L 457.07 448.05
  L 457.09 375.19
  L 457.75 382.03
  Q 457.79 382.46 458.14 382.71
  Q 458.62 383.05 459.23 382.82
  Q 459.79 382.62 459.87 382.03
  L 460.92 373.69
  Z"
/>
<path fill="#cfae7f" d="
  M 514.66 381.25
  Q 514.76 382.91 515.50 384.00
  Q 516.53 385.52 518.35 384.36
  L 504.30 412.13
  Q 502.28 409.90 500.25 409.32
  L 514.66 381.25
  Z"
/>
<path fill="#e7c79a" d="
  M 550.08 385.02
  Q 550.56 384.79 551.36 385.40
  Q 551.90 385.81 552.71 385.82
  Q 553.14 385.82 553.32 386.20
  Q 553.54 386.67 554.09 387.08
  L 546.24 402.82
  Q 544.26 403.05 541.90 401.39
  L 550.08 385.02
  Z"
/>
<path fill="#e7c79a" d="
  M 581.72 402.78
  L 598.25 435.47
  Q 597.13 435.48 596.37 434.77
  Q 596.04 434.45 595.58 434.47
  Q 595.28 434.48 594.97 434.29
  Q 587.61 429.86 580.09 425.71
  Q 579.20 425.22 578.31 424.36
  Q 577.18 423.25 576.51 422.98
  Q 573.04 421.59 570.74 419.07
  L 554.49 386.97
  L 554.78 386.74
  Q 555.06 386.51 555.38 386.68
  L 566.50 392.75
  Q 566.84 392.94 566.91 393.32
  Q 567.00 393.78 567.33 393.94
  Q 575.08 397.70 577.38 399.61
  Q 580.33 402.06 581.72 402.78
  Z"
/>
<path fill="#cfae7f" d="
  M 624.42 424.75
  L 620.57 424.54
  L 620.58 401.38
  Q 620.58 401.01 620.95 401.01
  L 624.05 401.01
  Q 624.41 401.01 624.41 401.37
  L 624.42 424.75
  Z"
/>
<path fill="#cfae7f" d="
  M 541.90 401.39
  Q 544.26 403.05 546.24 402.82
  L 534.35 426.56
  Q 533.04 426.42 532.34 425.45
  Q 532.11 425.14 531.76 425.01
  Q 531.03 424.73 530.92 423.70
  L 541.90 401.39
  Z"
/>
<path fill="#b38f5f" d="
  M 500.25 409.32
  Q 502.28 409.90 504.30 412.13
  L 483.80 452.70
  Q 483.05 452.19 482.58 451.42
  Q 482.31 450.98 481.81 450.83
  L 479.31 450.08
  L 500.25 409.32
  Z"
/>
<path fill="#cfae7f" d="
  M 570.74 419.07
  Q 573.04 421.59 576.51 422.98
  Q 577.18 423.25 578.31 424.36
  Q 579.20 425.22 580.09 425.71
  Q 587.61 429.86 594.97 434.29
  Q 595.28 434.48 595.58 434.47
  Q 596.04 434.45 596.37 434.77
  Q 597.13 435.48 598.25 435.47
  L 620.21 478.90
  Q 620.64 479.75 620.64 478.80
  L 620.58 451.97
  Q 621.85 452.43 623.19 452.42
  Q 623.65 452.41 623.82 451.98
  L 624.41 450.44
  L 624.39 479.95
  Q 624.05 480.28 624.13 481.07
  Q 624.18 481.59 623.69 481.42
  L 622.12 480.88
  Q 621.66 480.73 621.20 480.85
  Q 620.06 481.15 619.60 480.00
  C 618.63 477.58 617.39 478.35 615.85 477.42
  C 613.37 475.94 611.60 474.67 608.22 472.99
  C 607.27 472.52 606.48 471.74 605.50 471.26
  Q 603.52 470.28 603.37 470.19
  Q 598.64 467.35 593.40 463.98
  Q 593.16 460.99 583.81 461.95
  Q 582.89 460.85 581.35 461.00
  Q 580.90 461.04 580.55 460.76
  Q 579.33 459.80 578.12 458.89
  Q 577.84 458.68 577.75 458.20
  Q 577.70 457.92 577.99 457.87
  Q 578.28 457.83 578.29 457.58
  L 589.66 457.61
  A 0.33 0.33 0.0 0 0 589.96 457.14
  L 570.74 419.07
  Z"
/>
<path fill="#b38f5f" d="
  M 530.92 423.70
  Q 531.03 424.73 531.76 425.01
  Q 532.11 425.14 532.34 425.45
  Q 533.04 426.42 534.35 426.56
  L 519.24 457.01
  Q 518.96 457.58 519.59 457.58
  L 578.29 457.58
  Q 578.28 457.83 577.99 457.87
  Q 577.70 457.92 577.75 458.20
  Q 577.84 458.68 578.12 458.89
  Q 579.33 459.80 580.55 460.76
  Q 580.90 461.04 581.35 461.00
  Q 582.89 460.85 583.81 461.95
  L 517.75 461.94
  Q 516.93 461.94 516.57 462.68
  L 508.11 480.16
  Q 506.29 477.52 504.10 477.49
  L 511.54 462.31
  A 0.28 0.27 -76.5 0 0 511.30 461.91
  L 486.47 461.89
  Q 487.74 461.17 486.96 459.30
  Q 486.77 458.85 486.34 458.59
  L 484.64 457.58
  L 513.04 457.58
  Q 513.95 457.58 514.36 456.76
  L 530.92 423.70
  Z"
/>
<path fill="#e7c79a" d="
  M 620.57 424.54
  L 624.42 424.75
  L 624.41 450.44
  L 623.82 451.98
  Q 623.65 452.41 623.19 452.42
  Q 621.85 452.43 620.58 451.97
  L 620.57 424.54
  Z"
/>
<path fill="#cfae7f" d="
  M 460.92 449.58
  L 460.91 462.54
  Q 459.85 461.07 459.56 459.98
  Q 458.83 457.31 457.83 459.89
  Q 457.82 459.92 457.07 460.53
  L 457.07 448.05
  L 458.15 446.89
  Q 458.55 446.46 458.98 446.86
  Q 460.09 447.91 460.92 449.58
  Z"
/>
<path fill="#cfae7f" d="
  M 479.31 450.08
  L 481.81 450.83
  Q 482.31 450.98 482.58 451.42
  Q 483.05 452.19 483.80 452.70
  L 481.70 457.02
  Q 481.45 457.53 482.03 457.54
  L 484.64 457.58
  L 486.34 458.59
  Q 486.77 458.85 486.96 459.30
  Q 487.74 461.17 486.47 461.89
  L 473.97 461.86
  Q 473.35 461.86 473.63 461.30
  L 479.31 450.08
  Z"
/>
<path fill="#e7c79a" d="
  M 460.91 462.54
  L 460.96 466.74
  Q 460.96 466.99 460.71 466.99
  L 457.29 466.99
  Q 457.05 466.99 457.05 466.75
  L 457.07 460.53
  Q 457.82 459.92 457.83 459.89
  Q 458.83 457.31 459.56 459.98
  Q 459.85 461.07 460.91 462.54
  Z"
/>
<path fill="#b38f5f" d="
  M 593.40 463.98
  Q 598.64 467.35 603.37 470.19
  Q 603.52 470.28 605.50 471.26
  C 606.48 471.74 607.27 472.52 608.22 472.99
  C 611.60 474.67 613.37 475.94 615.85 477.42
  C 617.39 478.35 618.63 477.58 619.60 480.00
  Q 620.06 481.15 621.20 480.85
  Q 621.66 480.73 622.12 480.88
  L 623.69 481.42
  Q 624.18 481.59 624.13 481.07
  Q 624.05 480.28 624.39 479.95
  Q 624.60 487.61 624.72 495.25
  Q 624.74 496.97 624.42 498.19
  C 623.99 499.80 624.21 501.21 623.59 502.54
  C 620.42 509.38 615.51 510.43 607.97 510.44
  Q 582.91 510.46 558.04 510.43
  Q 559.25 509.11 557.70 506.57
  L 613.30 506.56
  Q 615.00 506.56 614.23 505.05
  L 593.40 463.98
  Z"
/>
<path fill="#e7c79a" d="
  M 474.97 469.86
  L 460.10 499.62
  A 0.54 0.54 0.0 0 1 459.38 499.86
  L 456.43 498.37
  A 0.54 0.54 0.0 0 1 456.19 497.65
  L 470.76 469.34
  A 0.54 0.54 0.0 0 1 471.24 469.04
  L 474.50 469.08
  A 0.54 0.54 0.0 0 1 474.97 469.86
  Z"
/>
<path fill="#e7c79a" d="
  M 504.10 477.49
  Q 506.29 477.52 508.11 480.16
  L 493.34 510.69
  A 0.44 0.43 13.2 0 1 492.95 510.93
  L 487.79 510.91
  A 0.24 0.24 0.0 0 1 487.57 510.56
  L 504.10 477.49
  Z"
/>
<path fill="#e7c79a" d="
  M 557.70 506.57
  Q 559.25 509.11 558.04 510.43
  L 511.22 510.43
  Q 511.01 510.43 511.01 510.22
  L 511.01 506.78
  Q 511.01 506.57 511.22 506.57
  L 557.70 506.57
  Z"
/>
<path fill="#cfae7f" d="
  M 349.37 653.26
  Q 349.80 653.26 349.62 652.87
  L 313.81 573.29
  Q 313.30 572.14 312.78 573.29
  L 264.03 683.37
  A 0.68 0.68 0.0 0 1 263.41 683.77
  L 260.02 683.76
  Q 259.42 683.75 259.67 683.21
  L 310.69 567.93
  Q 310.90 567.47 310.61 567.05
  Q 306.72 561.42 301.36 557.19
  Q 299.99 556.11 301.74 556.11
  L 322.24 556.11
  Q 322.65 556.11 322.82 556.49
  L 367.82 656.39
  A 0.44 0.43 -11.9 0 1 367.42 657.00
  L 320.00 656.99
  A 0.48 0.47 -89.4 0 1 319.53 656.50
  L 319.62 653.87
  A 0.64 0.64 0.0 0 1 320.26 653.25
  L 349.37 653.26
  Z"
/>
<path fill="#b38f5f" d="
  M 537.51 660.90
  Q 538.35 660.19 537.91 658.81
  Q 537.78 658.38 537.33 658.38
  Q 536.78 658.38 536.32 658.21
  C 572.03 654.37 575.79 604.05 562.93 579.79
  Q 556.67 567.97 544.16 563.26
  Q 539.97 561.68 535.54 561.07
  Q 534.14 560.88 530.56 561.36
  Q 521.96 562.53 516.67 565.50
  Q 516.85 564.75 516.36 564.56
  Q 516.04 564.43 516.06 564.07
  Q 516.10 563.28 515.35 562.89
  Q 514.44 562.42 513.10 561.95
  C 522.80 558.17 533.13 557.68 543.29 559.32
  C 570.65 563.74 584.79 587.32 583.11 613.57
  C 581.66 636.06 570.07 653.05 547.46 659.47
  Q 543.34 660.64 537.51 660.90
  Z"
/>
<path fill="#e7c79a" d="
  M 423.47 625.96
  L 425.15 625.64
  Q 425.77 625.53 425.73 626.15
  L 425.53 628.95
  L 419.42 640.43
  A 2.46 2.46 0.0 0 1 415.07 640.43
  L 379.78 573.98
  Q 379.39 573.26 379.39 574.08
  L 379.41 638.20
  Q 379.17 639.29 379.29 640.10
  A 0.99 0.99 0.0 0 1 378.68 641.17
  L 378.37 641.29
  Q 377.64 641.58 377.54 640.79
  C 377.40 639.56 376.92 638.62 376.92 637.37
  Q 376.86 626.54 376.29 615.70
  Q 376.23 592.74 376.29 569.75
  Q 376.30 567.24 375.18 565.55
  Q 372.96 562.17 369.47 560.39
  Q 367.20 559.25 369.74 559.25
  L 384.48 559.28
  Q 384.98 559.28 385.21 559.72
  L 421.57 628.02
  Q 421.91 628.66 422.27 628.04
  L 423.47 625.96
  Z"
/>
<path fill="#cfae7f" d="
  M 425.53 628.95
  L 425.73 626.15
  Q 425.77 625.53 425.15 625.64
  L 423.47 625.96
  L 458.70 559.76
  A 0.93 0.92 13.8 0 1 459.52 559.27
  L 470.24 559.27
  Q 470.83 559.27 470.53 559.78
  C 466.72 566.12 466.42 571.40 466.42 577.92
  Q 466.44 618.43 466.43 658.97
  A 0.47 0.47 0.0 0 1 465.96 659.44
  L 455.50 659.42
  Q 455.09 659.42 455.09 659.00
  L 455.09 573.78
  Q 455.09 573.39 454.91 573.73
  L 425.53 628.95
  Z"
/>
<path fill="#cfae7f" d="
  M 693.00 575.50
  C 693.00 570.86 691.73 566.67 689.01 562.68
  Q 688.67 562.18 689.26 562.07
  L 703.48 559.52
  Q 704.00 559.42 704.00 559.96
  L 703.99 658.97
  Q 703.99 659.42 703.53 659.42
  L 693.51 659.42
  Q 693.02 659.42 693.02 658.93
  Q 692.99 617.21 693.00 575.50
  Z"
/>
<path fill="#e7c79a" d="
  M 729.43 597.20
  L 729.19 597.98
  Q 729.00 598.60 728.49 598.21
  Q 727.47 597.45 727.38 596.13
  Q 727.40 596.12 727.38 596.12
  Q 727.36 596.12 727.36 596.14
  Q 727.42 597.16 727.31 598.26
  Q 727.29 598.46 727.09 598.44
  L 726.82 598.42
  A 0.27 0.27 0.0 0 1 726.57 598.15
  L 726.30 581.70
  Q 726.26 575.62 726.23 569.54
  Q 726.21 566.99 725.07 565.27
  Q 722.94 562.07 719.71 560.55
  Q 716.94 559.24 720.00 559.25
  L 734.22 559.28
  Q 735.06 559.28 735.45 560.02
  L 771.77 628.27
  Q 772.04 628.77 772.30 628.27
  L 808.78 559.72
  A 0.84 0.84 0.0 0 1 809.52 559.28
  L 820.23 559.27
  A 0.38 0.38 0.0 0 1 820.55 559.85
  C 817.42 564.84 816.75 568.87 816.75 575.24
  Q 816.75 617.05 816.65 658.86
  A 0.55 0.55 0.0 0 1 816.10 659.41
  L 805.54 659.41
  Q 805.17 659.41 805.17 659.04
  L 805.11 573.85
  Q 805.10 573.47 804.93 573.80
  L 769.58 640.26
  A 2.57 2.57 0.0 0 1 765.04 640.25
  L 729.81 573.91
  Q 729.35 573.04 729.35 574.03
  L 729.43 597.20
  Z"
/>
<path fill="#b38f5f" d="
  M 651.57 560.35
  L 648.94 564.24
  C 646.95 563.74 645.06 562.97 642.96 562.96
  Q 627.58 562.91 612.22 562.94
  Q 611.89 562.94 611.89 563.27
  L 611.87 610.89
  A 0.23 0.22 0.0 0 0 612.10 611.11
  Q 626.42 611.10 640.80 611.06
  Q 645.68 611.05 648.49 609.76
  Q 652.91 607.73 656.08 603.63
  Q 657.52 604.43 658.15 606.00
  Q 658.04 606.69 658.61 606.98
  Q 659.02 607.18 659.01 607.63
  Q 659.00 608.68 660.90 609.75
  Q 656.05 612.60 650.68 613.50
  Q 650.07 613.61 650.58 613.95
  C 656.51 617.96 660.00 622.48 662.52 629.19
  C 663.93 632.97 664.31 638.30 665.31 641.76
  Q 667.41 649.08 672.49 654.77
  Q 674.45 656.97 676.34 659.22
  Q 676.64 659.57 676.19 659.68
  Q 670.51 661.11 665.77 659.74
  C 659.06 657.80 656.17 652.71 654.67 646.21
  C 652.22 635.57 651.54 622.97 640.99 616.79
  Q 638.18 615.14 633.79 614.80
  C 626.66 614.25 619.59 614.55 612.46 614.42
  Q 611.88 614.40 611.88 614.99
  L 611.88 659.50
  A 0.39 0.39 0.0 0 1 611.49 659.89
  L 600.87 659.88
  A 0.59 0.59 0.0 0 1 600.29 659.29
  Q 600.26 617.00 600.25 574.50
  Q 600.25 566.59 596.56 560.44
  Q 596.34 560.08 596.77 560.08
  L 651.57 560.35
  Z"
/>
<path fill="#cfae7f" d="
  M 651.57 560.35
  Q 654.90 561.83 657.98 563.05
  C 667.25 566.74 671.63 574.04 672.43 583.95
  C 673.23 593.89 669.92 604.35 660.90 609.75
  Q 659.00 608.68 659.01 607.63
  Q 659.02 607.18 658.61 606.98
  Q 658.04 606.69 658.15 606.00
  Q 657.52 604.43 656.08 603.63
  Q 664.58 590.03 659.12 574.88
  Q 656.52 567.64 648.94 564.24
  L 651.57 560.35
  Z"
/>
<path fill="#cfae7f" d="
  M 513.10 561.95
  Q 514.44 562.42 515.35 562.89
  Q 516.10 563.28 516.06 564.07
  Q 516.04 564.43 516.36 564.56
  Q 516.85 564.75 516.67 565.50
  C 495.65 578.42 493.79 608.75 498.88 628.75
  C 503.40 646.55 517.05 659.69 536.32 658.21
  Q 536.78 658.38 537.33 658.38
  Q 537.78 658.38 537.91 658.81
  Q 538.35 660.19 537.51 660.90
  C 496.73 664.06 475.59 629.27 485.27 592.78
  Q 491.12 570.73 513.10 561.95
  Z"
/>
<path fill="#cfae7f" d="
  M 726.30 581.70
  L 726.57 598.15
  A 0.27 0.27 0.0 0 0 726.82 598.42
  L 727.09 598.44
  Q 727.29 598.46 727.31 598.26
  Q 727.42 597.16 727.36 596.14
  Q 727.36 596.12 727.38 596.12
  Q 727.40 596.12 727.38 596.13
  Q 727.47 597.45 728.49 598.21
  Q 729.00 598.60 729.19 597.98
  L 729.43 597.20
  L 729.42 658.72
  A 0.73 0.72 0.4 0 1 728.68 659.44
  L 727.02 659.40
  Q 726.27 659.39 726.27 658.64
  L 726.30 581.70
  Z"
/>
<path fill="#cfae7f" d="
  M 376.29 615.70
  Q 376.86 626.54 376.92 637.37
  C 376.92 638.62 377.40 639.56 377.54 640.79
  Q 377.64 641.58 378.37 641.29
  L 378.68 641.17
  A 0.99 0.99 0.0 0 0 379.29 640.10
  Q 379.17 639.29 379.41 638.20
  L 379.42 658.60
  Q 379.42 659.52 378.50 659.47
  L 377.03 659.40
  Q 376.26 659.36 376.26 658.59
  L 376.29 615.70
  Z"
/>
<path fill="#cfae7f" d="
  M 529.78 681.04
  Q 528.61 683.57 530.03 685.74
  Q 505.53 685.77 481.00 685.78
  C 480.40 685.78 479.89 685.50 479.32 685.50
  C 408.08 685.48 336.84 684.67 265.62 683.72
  Q 265.41 683.71 265.41 683.51
  L 265.41 683.50
  Q 265.41 683.29 265.62 683.29
  C 346.85 681.74 422.63 681.31 501.07 681.25
  C 508.98 681.24 520.20 680.84 529.78 681.04
  Z"
/>
<path fill="#e7c79a" d="
  M 529.78 681.04
  Q 546.90 680.96 564.00 681.02
  Q 564.60 681.03 564.98 681.15
  Q 565.34 681.27 565.73 681.27
  L 632.54 681.32
  L 633.61 682.02
  Q 634.02 682.29 634.03 682.79
  Q 634.04 684.57 632.79 685.50
  L 530.03 685.74
  Q 528.61 683.57 529.78 681.04
  Z"
/>
<path fill="#cfae7f" d="
  M 632.54 681.32
  L 815.84 683.24
  Q 816.06 683.25 816.06 683.47
  L 816.06 683.48
  Q 816.06 683.71 815.84 683.71
  L 632.79 685.50
  Q 634.04 684.57 634.03 682.79
  Q 634.02 682.29 633.61 682.02
  L 632.54 681.32
  Z"
/>
<path fill="#fcfdfd" d="
  M 748.82 705.56
  Q 747.69 706.73 746.66 707.64
  Q 746.23 708.01 745.78 708.01
  Q 745.55 708.01 745.33 707.97
  Q 744.77 707.86 745.00 707.34
  Q 746.10 704.92 748.71 705.25
  Q 749.08 705.29 748.82 705.56
  Z"
/>
<path fill="#fcfdfd" d="
  M 465.25 715.75
  L 467.40 715.77
  Q 467.70 715.77 467.67 716.07
  L 467.64 716.37
  Q 467.62 716.48 467.51 716.48
  L 465.25 716.49
  Q 464.76 716.50 464.76 716.99
  C 464.70 722.86 462.48 727.21 456.01 726.92
  C 449.34 726.62 446.81 717.63 453.64 716.44
  A 0.40 0.40 0.0 0 0 453.73 715.68
  C 446.88 712.64 453.66 705.36 460.18 708.41
  A 0.25 0.25 0.0 0 1 460.29 708.74
  L 460.16 709.00
  Q 460.04 709.22 459.82 709.10
  C 451.05 704.22 449.52 719.52 462.15 715.57
  Q 462.63 715.42 462.56 714.93
  L 462.31 712.93
  A 0.30 0.30 0.0 0 1 462.57 712.60
  L 464.53 712.33
  A 0.20 0.20 0.0 0 1 464.76 712.53
  L 464.75 715.25
  Q 464.74 715.75 465.25 715.75
  Z
  M 459.29 716.53
  C 456.46 716.64 452.99 715.93 452.27 719.73
  C 450.74 727.72 462.34 728.59 462.75 721.23
  Q 462.86 719.22 462.71 717.03
  Q 462.67 716.52 462.16 716.51
  Q 460.68 716.48 459.29 716.53
  Z"
/>
<path fill="#fcfdfd" d="
  M 314.97 709.24
  L 315.91 709.26
  A 0.31 0.31 0.0 0 1 316.19 709.70
  L 308.67 726.49
  A 0.31 0.31 0.0 0 1 308.11 726.49
  L 300.57 709.58
  A 0.31 0.31 0.0 0 1 300.91 709.15
  L 301.90 709.33
  A 0.31 0.31 0.0 0 1 302.13 709.51
  L 308.11 722.86
  A 0.31 0.31 0.0 0 0 308.67 722.86
  L 314.69 709.43
  A 0.31 0.31 0.0 0 1 314.97 709.24
  Z"
/>
<path fill="#fcfdfd" d="
  M 338.58 717.92
  A 8.84 8.84 0.0 0 1 329.74 726.76
  A 8.84 8.84 0.0 0 1 320.90 717.92
  A 8.84 8.84 0.0 0 1 329.74 709.08
  A 8.84 8.84 0.0 0 1 338.58 717.92
  Z
  M 337.09 717.93
  A 7.35 7.35 0.0 0 0 329.74 710.58
  A 7.35 7.35 0.0 0 0 322.39 717.93
  A 7.35 7.35 0.0 0 0 329.74 725.28
  A 7.35 7.35 0.0 0 0 337.09 717.93
  Z"
/>
<path fill="#fcfdfd" d="
  M 355.02 710.77
  C 347.57 708.63 342.43 718.17 348.46 723.52
  Q 353.08 727.61 358.83 722.76
  A 0.47 0.46 42.8 0 1 359.41 722.74
  L 359.63 722.90
  A 0.69 0.69 0.0 0 1 359.68 723.97
  C 355.01 728.18 348.00 727.63 345.28 722.03
  C 340.85 712.90 351.88 704.71 359.35 711.60
  Q 359.67 711.90 359.47 712.28
  L 359.32 712.57
  Q 359.01 713.14 358.46 712.81
  C 357.29 712.10 356.29 711.13 355.02 710.77
  Z"
/>
<path fill="#fcfdfd" d="
  M 387.53 719.31
  C 388.40 725.32 396.18 727.30 400.32 722.74
  Q 400.54 722.50 400.78 722.72
  L 401.42 723.30
  Q 401.61 723.48 401.44 723.67
  Q 397.38 728.23 391.74 726.28
  C 379.31 721.98 389.03 701.85 400.91 711.47
  Q 401.27 711.76 401.10 712.19
  L 400.97 712.52
  Q 400.59 713.48 399.85 712.77
  C 394.36 707.47 386.50 712.19 387.53 719.31
  Z"
/>
<rect fill="#fcfdfd" x="408.50" y="709.14" width="1.50" height="17.46" rx="0.73"/>
<path fill="#fcfdfd" d="
  M 507.03 723.03
  C 508.92 726.52 514.92 726.14 515.85 722.03
  Q 515.96 721.58 515.76 721.15
  C 513.94 717.18 508.32 719.99 505.72 715.83
  C 501.74 709.47 515.57 706.09 517.38 712.67
  A 1.02 1.01 64.8 0 1 516.99 713.77
  L 516.75 713.94
  A 0.31 0.31 0.0 0 1 516.27 713.80
  C 514.82 709.84 509.45 709.54 506.88 712.48
  Q 506.57 712.84 506.57 713.31
  C 506.57 717.99 512.11 716.57 514.96 718.22
  C 522.42 722.54 512.26 730.92 505.91 724.36
  Q 505.07 723.49 505.10 723.33
  Q 505.65 720.49 507.03 723.03
  Z"
/>
<path fill="#fcfdfd" d="
  M 526.06 714.69
  C 527.30 718.39 533.71 716.15 536.03 719.73
  C 538.03 722.81 535.69 725.82 532.47 726.50
  Q 528.29 727.38 525.07 724.48
  A 1.28 1.27 -70.2 0 1 524.65 723.58
  Q 524.56 721.36 525.68 722.08
  Q 525.94 722.25 526.12 722.63
  Q 527.51 725.63 531.50 725.19
  C 534.82 724.84 537.02 720.74 533.24 719.26
  C 530.41 718.15 524.95 718.85 524.37 714.13
  Q 524.06 711.65 526.71 710.22
  Q 532.31 707.21 536.40 711.77
  Q 536.97 712.41 536.58 713.17
  L 536.30 713.72
  A 0.39 0.38 -45.6 0 1 535.61 713.73
  Q 533.37 709.35 528.39 710.94
  C 526.73 711.48 525.43 712.80 526.06 714.69
  Z"
/>
<path fill="#fcfdfd" d="
  M 572.66 713.34
  C 571.30 709.68 566.57 709.99 564.07 712.02
  A 2.21 2.21 0.0 0 0 563.65 714.99
  C 566.09 718.53 574.93 716.18 574.12 722.51
  C 573.40 728.14 563.32 728.16 561.83 722.89
  Q 561.67 722.33 562.24 722.18
  L 562.61 722.08
  A 0.79 0.79 0.0 0 1 563.54 722.53
  C 565.09 726.25 571.43 726.60 572.58 722.12
  A 1.35 1.30 -48.8 0 0 572.54 721.34
  C 571.33 718.07 567.04 718.91 564.82 717.91
  C 556.55 714.22 566.72 704.42 573.70 711.58
  A 1.43 0.85 62.0 0 1 573.59 713.80
  Q 573.40 713.76 573.29 713.76
  Q 572.82 713.77 572.66 713.34
  Z"
/>
<path fill="#fcfdfd" d="
  M 592.26 713.67
  C 588.79 705.18 574.51 715.89 588.64 717.35
  C 597.86 718.31 592.45 731.50 582.45 725.05
  A 1.41 1.41 0.0 0 1 581.83 724.15
  Q 581.18 721.15 582.46 722.09
  Q 582.69 722.26 582.85 722.62
  C 584.63 726.45 590.93 726.43 591.90 721.89
  A 1.18 1.18 0.0 0 0 591.79 721.09
  C 589.65 716.91 582.81 720.33 581.22 714.67
  C 579.65 709.02 590.65 706.75 593.29 712.36
  Q 593.57 712.97 593.19 713.51
  L 593.01 713.76
  A 0.43 0.43 0.0 0 1 592.26 713.67
  Z"
/>
<path fill="#fcfdfd" d="
  M 617.24 717.93
  A 8.84 8.84 0.0 0 1 608.40 726.77
  A 8.84 8.84 0.0 0 1 599.56 717.93
  A 8.84 8.84 0.0 0 1 608.40 709.09
  A 8.84 8.84 0.0 0 1 617.24 717.93
  Z
  M 615.75 717.92
  A 7.36 7.36 0.0 0 0 608.39 710.56
  A 7.36 7.36 0.0 0 0 601.03 717.92
  A 7.36 7.36 0.0 0 0 608.39 725.28
  A 7.36 7.36 0.0 0 0 615.75 717.92
  Z"
/>
<path fill="#fcfdfd" d="
  M 789.78 724.93
  Q 794.25 726.58 797.38 723.02
  Q 797.87 722.46 798.51 722.82
  L 798.75 722.95
  A 0.48 0.48 0.0 0 1 798.88 723.69
  C 794.02 729.34 785.06 726.80 783.61 719.74
  C 781.86 711.20 791.38 705.97 798.15 711.26
  Q 798.81 711.78 798.36 712.49
  L 798.20 712.75
  Q 797.93 713.18 797.53 712.88
  C 796.24 711.94 794.94 710.72 793.28 710.57
  C 784.23 709.77 781.68 721.93 789.78 724.93
  Z"
/>
<path fill="#fcfdfd" d="
  M 263.55 722.42
  L 261.49 726.69
  A 0.30 0.30 0.0 0 1 261.08 726.82
  L 260.35 726.44
  A 0.30 0.30 0.0 0 1 260.22 726.05
  L 267.95 709.43
  A 0.30 0.30 0.0 0 1 268.50 709.44
  L 275.78 726.02
  A 0.30 0.30 0.0 0 1 275.62 726.42
  L 274.81 726.76
  A 0.30 0.30 0.0 0 1 274.42 726.60
  L 272.58 722.43
  A 0.30 0.30 0.0 0 0 272.30 722.25
  L 263.82 722.25
  A 0.30 0.30 0.0 0 0 263.55 722.42
  Z
  M 264.51 720.27
  A 0.32 0.32 0.0 0 0 264.80 720.73
  L 271.38 720.77
  A 0.32 0.32 0.0 0 0 271.68 720.32
  L 268.44 713.08
  A 0.32 0.32 0.0 0 0 267.85 713.08
  L 264.51 720.27
  Z"
/>
<path fill="#fcfdfd" d="
  M 282.50 709.69
  A 0.46 0.46 0.0 0 1 282.97 709.23
  L 287.70 709.24
  A 8.51 8.29 -89.9 0 1 295.97 717.76
  L 295.97 718.06
  A 8.51 8.29 -89.9 0 1 287.66 726.56
  L 282.93 726.55
  A 0.46 0.46 0.0 0 1 282.48 726.09
  L 282.50 709.69
  Z
  M 284.00 710.91
  L 284.00 725.01
  A 0.24 0.24 0.0 0 0 284.24 725.25
  L 287.23 725.25
  A 7.21 7.07 0.0 0 0 294.44 718.18
  L 294.44 717.74
  A 7.21 7.07 -0.0 0 0 287.23 710.67
  L 284.24 710.67
  A 0.24 0.24 0.0 0 0 284.00 710.91
  Z"
/>
<path fill="#fcfdfd" d="
  M 368.75 722.43
  L 366.81 726.60
  A 0.31 0.31 0.0 0 1 366.44 726.77
  L 365.62 726.52
  A 0.31 0.31 0.0 0 1 365.43 726.09
  L 373.18 709.45
  A 0.31 0.31 0.0 0 1 373.75 709.46
  L 381.02 726.07
  A 0.31 0.31 0.0 0 1 380.73 726.50
  L 379.78 726.47
  A 0.31 0.31 0.0 0 1 379.50 726.28
  L 377.85 722.44
  A 0.31 0.31 0.0 0 0 377.57 722.25
  L 369.03 722.25
  A 0.31 0.31 0.0 0 0 368.75 722.43
  Z
  M 369.74 720.26
  A 0.32 0.32 0.0 0 0 370.02 720.72
  L 376.58 720.79
  A 0.32 0.32 0.0 0 0 376.88 720.34
  L 373.67 713.08
  A 0.32 0.32 0.0 0 0 373.09 713.07
  L 369.74 720.26
  Z"
/>
<path fill="#fcfdfd" d="
  M 429.10 722.25
  L 420.64 722.25
  A 0.30 0.30 0.0 0 0 420.37 722.42
  L 418.44 726.36
  A 0.30 0.30 0.0 0 1 418.15 726.53
  L 417.28 726.49
  A 0.30 0.30 0.0 0 1 417.02 726.06
  L 424.75 709.43
  A 0.30 0.30 0.0 0 1 425.30 709.44
  L 432.62 726.11
  A 0.30 0.30 0.0 0 1 432.47 726.50
  L 431.75 726.82
  A 0.30 0.30 0.0 0 1 431.36 726.67
  L 429.37 722.42
  A 0.30 0.30 0.0 0 0 429.10 722.25
  Z
  M 421.34 720.26
  A 0.33 0.33 0.0 0 0 421.64 720.73
  L 428.15 720.76
  A 0.33 0.33 0.0 0 0 428.45 720.30
  L 425.24 713.06
  A 0.33 0.33 0.0 0 0 424.63 713.05
  L 421.34 720.26
  Z"
/>
<path fill="#fcfdfd" d="
  M 495.77 722.25
  L 487.26 722.25
  A 0.31 0.31 0.0 0 0 486.98 722.43
  L 485.14 726.30
  A 0.31 0.31 0.0 0 1 484.87 726.48
  L 483.93 726.52
  A 0.31 0.31 0.0 0 1 483.64 726.08
  L 491.37 709.46
  A 0.31 0.31 0.0 0 1 491.94 709.47
  L 499.24 726.08
  A 0.31 0.31 0.0 0 1 498.96 726.51
  L 498.00 726.49
  A 0.31 0.31 0.0 0 1 497.72 726.31
  L 496.05 722.44
  A 0.31 0.31 0.0 0 0 495.77 722.25
  Z
  M 488.02 720.27
  A 0.33 0.33 0.0 0 0 488.32 720.74
  L 494.76 720.76
  A 0.33 0.33 0.0 0 0 495.07 720.30
  L 491.87 713.03
  A 0.33 0.33 0.0 0 0 491.27 713.03
  L 488.02 720.27
  Z"
/>
<path fill="#fcfdfd" d="
  M 545.81 717.25
  L 552.96 717.25
  A 0.31 0.31 0.0 0 1 553.27 717.57
  L 553.24 718.45
  A 0.31 0.31 0.0 0 1 552.93 718.75
  L 545.81 718.74
  A 0.31 0.31 0.0 0 0 545.50 719.05
  L 545.50 724.69
  A 0.31 0.31 0.0 0 0 545.81 725.00
  L 555.28 725.00
  A 0.31 0.31 0.0 0 1 555.59 725.30
  L 555.61 726.17
  A 0.31 0.31 0.0 0 1 555.30 726.49
  L 544.31 726.50
  A 0.31 0.31 0.0 0 1 544.00 726.19
  L 544.00 709.55
  A 0.31 0.31 0.0 0 1 544.31 709.24
  L 555.24 709.27
  A 0.31 0.31 0.0 0 1 555.54 709.53
  L 555.68 710.39
  A 0.31 0.31 0.0 0 1 555.38 710.75
  L 545.80 710.75
  A 0.31 0.31 0.0 0 0 545.49 711.06
  L 545.50 716.94
  A 0.31 0.31 0.0 0 0 545.81 717.25
  Z"
/>
<path fill="#fcfdfd" d="
  M 625.25 711.28
  L 625.25 726.00
  Q 625.25 726.51 624.74 726.50
  L 624.24 726.49
  Q 623.75 726.47 623.75 725.99
  L 623.75 709.76
  Q 623.75 709.25 624.26 709.25
  C 627.45 709.23 633.08 708.38 634.99 712.07
  C 636.82 715.61 633.97 718.79 630.33 719.07
  A 0.34 0.33 67.8 0 0 630.10 719.62
  L 635.46 726.04
  Q 635.85 726.50 635.24 726.50
  L 634.38 726.50
  Q 633.85 726.50 633.51 726.08
  L 627.14 718.35
  Q 626.66 717.76 627.42 717.77
  C 629.15 717.79 631.20 717.90 632.62 716.89
  C 634.18 715.77 634.77 714.04 633.51 712.38
  C 631.93 710.30 628.37 710.62 625.70 710.80
  Q 625.25 710.83 625.25 711.28
  Z"
/>
<rect fill="#fcfdfd" x="643.50" y="709.22" width="1.24" height="17.38" rx="0.60"/>
<path fill="#fcfdfd" d="
  M 663.98 722.25
  L 655.52 722.24
  A 0.30 0.30 0.0 0 0 655.25 722.41
  L 653.33 726.32
  A 0.30 0.30 0.0 0 1 653.07 726.49
  L 652.15 726.50
  A 0.30 0.30 0.0 0 1 651.87 726.08
  L 659.60 709.44
  A 0.30 0.30 0.0 0 1 660.15 709.45
  L 667.46 726.03
  A 0.30 0.30 0.0 0 1 667.22 726.45
  L 666.32 726.57
  A 0.30 0.30 0.0 0 1 666.01 726.39
  L 664.25 722.43
  A 0.30 0.30 0.0 0 0 663.98 722.25
  Z
  M 656.20 720.26
  A 0.33 0.33 0.0 0 0 656.50 720.72
  L 662.98 720.77
  A 0.33 0.33 0.0 0 0 663.29 720.31
  L 660.10 713.03
  A 0.33 0.33 0.0 0 0 659.49 713.03
  L 656.20 720.26
  Z"
/>
<path fill="#fcfdfd" d="
  M 688.42 724.93
  C 696.75 727.75 695.26 713.66 695.29 709.74
  Q 695.29 709.26 695.77 709.25
  L 696.05 709.24
  A 0.39 0.39 0.0 0 1 696.44 709.62
  Q 696.69 717.78 696.40 720.75
  C 695.84 726.62 688.27 729.00 684.71 723.93
  Q 684.30 723.35 684.66 722.74
  L 684.87 722.39
  A 0.36 0.36 0.0 0 1 685.43 722.32
  C 686.41 723.29 687.09 724.49 688.42 724.93
  Z"
/>
<path fill="#fcfdfd" d="
  M 706.21 722.49
  C 708.79 727.71 715.79 725.16 715.90 719.50
  Q 715.99 714.62 716.04 709.79
  A 0.50 0.49 88.2 0 1 716.50 709.29
  L 716.77 709.27
  Q 717.24 709.23 717.23 709.70
  C 717.23 713.61 717.99 720.15 716.36 723.32
  C 713.23 729.41 704.40 726.80 704.07 720.01
  Q 703.88 716.17 704.05 709.89
  Q 704.06 709.25 704.71 709.22
  L 704.96 709.21
  A 0.51 0.51 0.0 0 1 705.49 709.71
  C 705.51 713.09 704.80 719.63 706.21 722.49
  Z"
/>
<path fill="#fcfdfd" d="
  M 726.50 711.26
  L 726.49 726.32
  A 0.34 0.34 0.0 0 1 726.08 726.65
  L 725.71 726.57
  A 0.88 0.88 0.0 0 1 725.00 725.71
  L 725.00 709.76
  Q 725.00 709.27 725.49 709.26
  Q 727.62 709.21 730.98 709.29
  C 738.50 709.48 738.57 718.67 731.38 719.03
  A 0.28 0.28 0.0 0 0 731.18 719.48
  L 736.58 726.02
  Q 737.29 726.89 736.20 726.63
  L 735.11 726.37
  A 0.92 0.87 76.0 0 1 734.64 726.07
  L 728.33 718.40
  Q 727.80 717.75 728.64 717.75
  C 730.33 717.75 732.62 717.97 734.08 716.62
  C 736.44 714.47 735.16 711.63 732.24 710.90
  Q 730.72 710.51 726.90 710.83
  Q 726.50 710.86 726.50 711.26
  Z"
/>
<rect fill="#fcfdfd" x="744.75" y="709.24" width="1.24" height="17.28" rx="0.54"/>
<path fill="#fcfdfd" d="
  M 754.26 709.71
  A 0.46 0.46 0.0 0 1 754.73 709.25
  L 759.66 709.26
  A 8.20 8.11 -89.9 0 1 767.75 717.47
  L 767.75 718.35
  A 8.20 8.11 -89.9 0 1 759.62 726.54
  L 754.69 726.53
  A 0.46 0.46 0.0 0 1 754.24 726.07
  L 754.26 709.71
  Z
  M 755.75 711.07
  L 755.71 724.85
  A 0.37 0.37 0.0 0 0 756.07 725.22
  L 759.41 725.23
  A 6.97 6.81 -89.8 0 0 766.25 718.29
  L 766.25 717.71
  A 6.97 6.81 -89.8 0 0 759.47 710.71
  L 756.13 710.70
  A 0.37 0.37 0.0 0 0 755.75 711.07
  Z"
/>
<rect fill="#fcfdfd" x="775.01" y="709.21" width="1.24" height="17.32" rx="0.59"/>
<path fill="#fcfdfd" d="
  M 816.65 722.24
  L 808.14 722.25
  A 0.31 0.31 0.0 0 0 807.86 722.43
  L 806.06 726.38
  A 0.31 0.31 0.0 0 1 805.75 726.56
  L 804.82 726.46
  A 0.31 0.31 0.0 0 1 804.57 726.02
  L 812.29 709.44
  A 0.31 0.31 0.0 0 1 812.86 709.45
  L 820.13 726.07
  A 0.31 0.31 0.0 0 1 819.83 726.50
  L 818.92 726.46
  A 0.31 0.31 0.0 0 1 818.65 726.28
  L 816.93 722.42
  A 0.31 0.31 0.0 0 0 816.65 722.24
  Z
  M 808.87 720.26
  A 0.33 0.33 0.0 0 0 809.17 720.72
  L 815.69 720.77
  A 0.33 0.33 0.0 0 0 816.00 720.30
  L 812.78 713.11
  A 0.33 0.33 0.0 0 0 812.18 713.11
  L 808.87 720.26
  Z"
/>
</svg>
